<?xml version="1.0" encoding="UTF-8"?>
<svg id="Layer_1" xmlns="http://www.w3.org/2000/svg" version="1.1" viewBox="0 0 170.18 216">
  <!-- Generator: Adobe Illustrator 30.2.1, SVG Export Plug-In . SVG Version: 2.1.1 Build 1)  -->
  <path d="M170.05,99v-55c0-6.46-4.92-11.84-11.21-12.25-7.01-.45-12.79,5.1-12.79,11.97v56.27c0,2.21-1.79,4-4,4s-4-1.79-4-4V20.27c0-6.46-4.92-11.84-11.21-12.25-7-.45-12.79,5.1-12.79,11.97v72c0,2.21-1.79,4-4,4s-4-1.79-4-4V11.97c0-6.6-5.37-11.97-12.03-11.97s-11.97,5.37-11.97,11.97v88.03c0,2.21-1.79,4-4,4s-4-1.79-4-4V28.27c0-6.46-4.92-11.84-11.21-12.25-7.02-.45-12.79,5.1-12.79,11.97v71c-.08.32-.12.65-.12,1v37.03l-28.09-33.38c-3.58-4.31-7.33-5.22-9.85-5.22-1.83,0-3.67.47-5.46,1.38-2.85,1.46-4.96,3.95-5.95,7-.98,3.05-.72,6.3.73,9.12l35.77,71.37c8.87,17.7,26.68,28.69,46.47,28.69h42.31c24.43,0,44.31-19.88,44.31-44.31v-71.69c0-.34-.04-.68-.12-1Z"/>
</svg>