<?xml version="1.0" encoding="UTF-8"?>
<svg id="Layer_1" xmlns="http://www.w3.org/2000/svg" version="1.1" viewBox="0 0 423.04 389.84">
  <!-- Generator: Adobe Illustrator 30.2.1, SVG Export Plug-In . SVG Version: 2.1.1 Build 1)  -->
  <defs>
    <style>
      .st0 {
        fill-rule: evenodd;
      }
    </style>
  </defs>
  <path class="st0" d="M203.65,172.39c-19.11,2.02-31.07,8.78-44.61,19.95-4.86,4.01-10.56,11.26-14.47,17.82-3.81,6.39-11.82,18.33-16.56,23.67l-19.9,20.31c-.76.67-1.11,1.17-1.85,1.82-.92.82-1.42,1.02-2.4,1.85-1.9,1.62-2.78,2.33-4.61,3.83-9.96,8.2-21.33,21.02-27.63,36.95-7.24,18.3-6.61,36.43,2.12,53.09,6.81,12.98,19.33,23.46,34.58,29.98,16.15,6.9,36.76,9.03,55.93,6.4,20.58-2.82,32.59-11.6,55.48-8.74,9.4,1.17,16.95,4.47,25.6,6.73,42.3,11.07,95.72-1.67,108.44-45.17,6.67-22.81-1.98-45.25-14.43-61.95-11.43-15.33-21.23-19.54-33.73-30.81-26.52-23.91-20.8-43.1-50.2-62.91-13.23-8.91-31.84-14.94-51.76-12.83"/>
  <path class="st0" d="M160.25.71c-29.03,4.58-59.66,42.75-68.52,71.45-12.38,40.08,9.4,83.49,39.63,92.71,28.67,8.74,53.44-12.83,62.98-37.87,3.45-9.04,5.67-18.23,6.21-28.76.98-19.34-.76-46.04-5.33-63.85-4.45-17.33-13.58-37.05-34.96-33.68"/>
  <path class="st0" d="M257.07.45c-17.74,3.45-24.47,22.86-28.26,41.92-3.45,17.35-5.7,46.99-3.21,64.72,3.82,27.17,21.13,53.59,45.98,58.7,46.39,9.54,78.72-52.92,59.47-100.87-4.62-11.52-11.95-23.47-19.52-32.76l-8.32-9.13c-10.14-10.39-29.25-25.86-46.14-22.58"/>
  <path class="st0" d="M379.31,114.99c-15.65,2.13-27.91,17.95-35,27.51-7.18,9.69-17.27,27.72-21.7,40.81-5.71,16.87-6.59,36.45,1.06,52.34,11.97,24.86,37.72,31.38,62.48,17.27,3.83-2.19,5.77-3.83,9-6.32,2.2-1.7,2.12-1.68,4.1-3.83,1.4-1.52,2.72-2.17,4.07-3.86,10.77-13.48,17.35-24.47,19.25-43.4,1.8-17.91-1.93-38.28-8.62-52.79-5.58-12.1-16.86-30.15-34.66-27.72"/>
  <path class="st0" d="M38.37,109.44c-30.36,3.99-55.54,76.8-23.42,118.34,2.26,2.92,8.52,10.28,11.03,12.23,1.53,1.18,2.84,2.33,4.41,3.53,24.64,18.92,58.1,14.93,70.34-17.19,6.43-16.87,4.41-36.56-1.94-52.53-8.82-22.18-33.76-67.89-60.42-64.38"/>
  <path class="st0" d="M118.55,265.73c-.64.66-1.24,1.29-1.94,1.9-.89.79-1.76,1.42-2.71,2.12-1.57,1.33-3.15,2.64-4.73,3.94-9.71,8-18.4,18.91-23.04,30.65-5.36,13.55-5.38,27.1,1.43,40.09,5.54,10.56,16.13,18.28,26.89,22.87,14.32,6.12,32.31,7.4,47.68,5.29,8.14-1.11,15.71-3.63,23.59-5.75,12.32-3.31,23.17-4.61,35.93-3.01,10.02,1.25,18.1,4.63,27.61,7.12,31.38,8.21,78.88,1.88,89.51-34.45,4.97-16.99-1.79-34.6-11.96-48.24-9.24-12.39-20.47-18.46-31.66-28.55-13.85-12.49-19.53-23.1-28.22-38.86-5.54-10.04-10.59-16.2-20.25-22.7-11.93-8.03-27.12-11.77-41.4-10.26-15.37,1.62-24.61,6.8-36.32,16.47-3.94,3.25-8.36,9.34-11,13.77-5.01,8.42-11.82,18.74-18.28,26.03l-.26.29-20.57,20.99-.3.27ZM203.65,172.39c-19.11,2.02-31.07,8.78-44.61,19.95-4.86,4.01-10.56,11.25-14.47,17.82-3.81,6.39-11.82,18.33-16.56,23.67l-19.9,20.31c-.76.67-1.11,1.17-1.85,1.82-.92.82-1.42,1.02-2.4,1.85-1.9,1.62-2.78,2.33-4.61,3.83-9.96,8.2-21.33,21.02-27.63,36.95-7.24,18.3-6.61,36.43,2.12,53.09,6.81,12.98,19.33,23.46,34.58,29.98,16.15,6.9,36.76,9.03,55.93,6.4,20.58-2.82,32.59-11.6,55.48-8.74,9.4,1.17,16.95,4.47,25.6,6.73,42.3,11.07,95.72-1.67,108.44-45.17,6.67-22.81-1.98-45.25-14.43-61.95-11.43-15.33-21.23-19.54-33.73-30.81-26.52-23.91-20.8-43.1-50.2-62.91-13.23-8.91-31.84-14.94-51.76-12.84Z"/>
  <path class="st0" d="M162.68,16.13c-23.54,3.72-49.42,39.21-56.04,60.64-4.74,15.35-3.44,32.29,3.15,46.9,4.97,11.02,14.12,22.61,26.12,26.27,20.11,6.13,37.21-11.09,43.84-28.5,2.99-7.84,4.78-15.58,5.2-23.99.91-17.85-.43-41.9-4.86-59.17-.69-2.7-1.49-5.38-2.45-7.99-2.56-6.96-6.2-15.53-14.96-14.15M160.25.71c-29.03,4.58-59.66,42.75-68.52,71.45-12.38,40.08,9.4,83.49,39.63,92.71,28.67,8.74,53.44-12.83,62.98-37.87,3.45-9.04,5.67-18.23,6.21-28.76.98-19.34-.76-46.04-5.33-63.85-4.45-17.33-13.58-37.05-34.96-33.68Z"/>
  <path class="st0" d="M299.69,42.34l-7.83-8.58c-6.35-6.45-22.05-19.88-31.82-17.98-10.24,1.99-14.24,21.19-15.92,29.64-3.32,16.7-5.42,42.71-3.06,59.5,2.54,18.05,14.18,41.58,33.67,45.59,5.62,1.15,11.19.8,16.55-1.29,12.63-4.91,21.35-17.94,25.71-30.25,5.44-15.36,5.69-33.02-.42-48.23-3.97-9.88-10.18-20.11-16.87-28.4M257.07.45c-17.74,3.45-24.47,22.86-28.26,41.92-3.45,17.35-5.7,46.99-3.21,64.72,3.82,27.17,21.13,53.59,45.98,58.7,46.39,9.54,78.72-52.92,59.47-100.87-4.63-11.52-11.95-23.47-19.52-32.76l-8.32-9.12c-10.14-10.39-29.25-25.86-46.14-22.58Z"/>
  <path class="st0" d="M386.59,233.48c.4-.41.79-.86,1.18-1.29,1.19-1.29,2.34-2.2,3.59-3.32,9.19-11.52,14.18-19.86,15.69-34.93,1.42-14.19-1.31-31.79-7.26-44.7-2.69-5.84-10.11-19.92-18.37-18.8-9.36,1.28-19.42,14.39-24.57,21.34-7.11,9.58-15.61,25.18-19.45,36.52-4.27,12.62-5.57,28.28.34,40.56,8.37,17.38,24.71,19.58,40.69,10.48,2.67-1.52,4.77-3.24,7.19-5.11.32-.25.66-.5.97-.76M379.31,114.99c-15.65,2.13-27.91,17.95-35,27.51-7.18,9.69-17.27,27.72-21.7,40.81-5.71,16.87-6.59,36.45,1.06,52.34,11.97,24.86,37.72,31.38,62.48,17.27,3.83-2.19,5.77-3.83,9-6.32,2.2-1.7,2.12-1.68,4.1-3.83,1.4-1.52,2.72-2.17,4.07-3.86,10.77-13.48,17.35-24.47,19.25-43.4,1.8-17.91-1.93-38.28-8.62-52.79-5.58-12.1-16.86-30.15-34.66-27.72Z"/>
  <path class="st0" d="M35.7,227.79c1.41,1.11,2.78,2.28,4.2,3.37,17.06,13.1,38.06,11.11,46.24-10.37,4.92-12.91,3.14-28.62-1.86-41.2-4.33-10.88-10.28-22.13-16.85-31.81-4.42-6.51-17.7-24.1-27.03-22.87-6.75.89-13.96,12.81-16.56,18.2-6.42,13.33-9.28,29.69-7.89,44.41,1.04,11.04,4.5,21.86,11.35,30.71,2.19,2.83,5.76,7.23,8.4,9.56M38.37,109.44c-30.36,3.99-55.54,76.8-23.42,118.34,2.26,2.92,8.52,10.28,11.03,12.23,1.53,1.18,2.84,2.33,4.41,3.53,24.64,18.92,58.1,14.93,70.34-17.19,6.43-16.87,4.41-36.56-1.94-52.53-8.82-22.18-33.76-67.89-60.42-64.38Z"/>
</svg>